<?xml version="1.0" encoding="iso-8859-1"?>
<!-- Uploaded to: SVG Repo, www.svgrepo.com, Generator: SVG Repo Mixer Tools -->
<svg height="800px" width="800px" version="1.1" id="Layer_1" xmlns="http://www.w3.org/2000/svg" xmlns:xlink="http://www.w3.org/1999/xlink" 
	 viewBox="0 0 512 512" xml:space="preserve">
<polygon style="fill:#9A4D01;" points="428.99,234.975 503.436,234.975 255.372,23.089 7.309,234.975 81.755,234.975 
	255.372,86.678 "/>
<polygon style="fill:#8C4402;" points="465.791,234.975 503.436,234.975 255.372,23.089 236.788,38.964 "/>
<polygon style="fill:#ED2601;" points="255.372,86.678 81.755,234.975 81.755,488.912 428.453,488.912 428.453,234.975 
	428.99,234.975 "/>
<g>
	<polygon style="fill:#C91C00;" points="255.372,86.678 243.468,96.846 405.181,234.975 404.644,234.975 404.644,488.912 
		428.453,488.912 428.453,234.975 428.99,234.975 	"/>
	<path style="fill:#C91C00;" d="M255.372,278.855L255.372,278.855c-53.766,0-97.352,43.586-97.352,97.352v112.706h194.705V376.206
		C352.725,322.44,309.138,278.855,255.372,278.855z"/>
</g>
<path d="M509.218,228.94L261.154,17.055c-2.968-2.535-7.341-2.535-10.309,0L2.782,228.94c-2.527,2.159-3.441,5.664-2.291,8.782
	c1.15,3.118,4.122,5.189,7.445,5.189h66.51v176.473c0,4.384,3.553,7.936,7.936,7.936s7.936-3.552,7.936-7.936v-180.75L256,97.114
	l76.649,65.471c3.333,2.848,8.344,2.451,11.189-0.88c2.846-3.332,2.452-8.343-0.88-11.189l-81.804-69.873
	c-2.968-2.535-7.341-2.535-10.309,0L79.453,227.039H29.447L256,33.526l226.553,193.512h-50.006l-69.748-59.575
	c-3.333-2.848-8.344-2.45-11.189,0.88c-2.845,3.332-2.452,8.343,0.88,11.189l0.319,0.272l0,0l12.031,10.277l56.305,48.093v242.799
	h-59.856V376.205c0-58.056-47.233-105.289-105.289-105.289s-105.289,47.233-105.289,105.289v104.769H90.319v-35.692
	c0-4.384-3.553-7.936-7.936-7.936s-7.936,3.552-7.936,7.936v35.692H15.805c-4.383,0-7.936,3.552-7.936,7.936
	c0,4.384,3.553,7.936,7.936,7.936h66.577h76.265h194.705h75.729h67.114c4.384,0,7.936-3.552,7.936-7.936
	c0-4.384-3.552-7.936-7.936-7.936h-59.178V242.911h67.045c3.324,0,6.295-2.071,7.445-5.189
	C512.66,234.605,511.746,231.099,509.218,228.94z M166.584,480.975V376.206c0-49.305,40.112-89.416,89.416-89.416
	c49.305,0,89.416,40.111,89.416,89.416v104.769H166.584z"/>
</svg>