<?xml version="1.0" encoding="iso-8859-1"?>
<!-- Uploaded to: SVG Repo, www.svgrepo.com, Generator: SVG Repo Mixer Tools -->
<svg version="1.1" id="Layer_1" xmlns="http://www.w3.org/2000/svg" xmlns:xlink="http://www.w3.org/1999/xlink" 
	 viewBox="0 0 512 512" xml:space="preserve">
<path style="fill:#37CC8F;" d="M362.717,98.931V28.786H149.283v70.145l-29.782,37.41c-8.76,11.003-13.529,24.652-13.529,38.717
	v296.002c0,22.611,18.329,40.941,40.941,40.941h218.176c22.611,0,40.941-18.329,40.941-40.941V175.057
	c0-14.065-4.77-27.714-13.529-38.717L362.717,98.931z"/>
<path style="fill:#FE9901;" d="M377.037,57.571H134.963c-7.22,0-13.073-5.853-13.073-13.073V13.073
	c0-7.22,5.853-13.073,13.073-13.073h242.073c7.22,0,13.073,5.853,13.073,13.073v31.425
	C390.111,51.718,384.257,57.571,377.037,57.571z"/>
<path style="fill:#ED8803;" d="M377.037,0h-24.853c7.22,0,13.073,5.853,13.073,13.073v31.425c0,7.22-5.853,13.073-13.073,13.073
	h24.853c7.22,0,13.073-5.853,13.073-13.073V13.073C390.111,5.853,384.257,0,377.037,0z"/>
<path style="fill:#2AA86F;" d="M392.5,136.341l-29.782-37.41v-41.36h-24.853V98.93l29.782,37.41
	c8.76,11.003,13.529,24.652,13.529,38.717v296.002c0,22.612-18.329,40.941-40.941,40.941h24.853
	c22.611,0,40.941-18.329,40.941-40.941V175.056C406.029,160.992,401.259,147.343,392.5,136.341z"/>
<rect x="105.969" y="186.675" style="fill:#FE9901;" width="300.062" height="238.496"/>
<rect x="381.24" y="186.675" style="fill:#ED8803;" width="24.785" height="238.496"/>
<g>
	<path style="fill:#FFFFFF;" d="M256.21,316.389c-0.071,0-0.349,0-0.42,0c-31.956,0-63.771,66.935-43.212,76.532
		c8.978,4.191,18.355,3.637,26.071,1.683c5.679-1.439,11.515-2.148,17.351-2.13c5.835-0.018,11.671,0.691,17.351,2.13
		c7.715,1.953,17.093,2.508,26.071-1.683C319.981,383.324,288.166,316.389,256.21,316.389z"/>
	<path style="fill:#FFFFFF;" d="M190.544,269.533c6.286,13.964,30.238,36.924,44.202,30.638c13.964-6.286,12.652-39.44,6.366-53.404
		c-6.286-13.964-22.703-20.187-36.667-13.901C190.482,239.153,184.257,255.569,190.544,269.533z"/>
	<path style="fill:#FFFFFF;" d="M152.229,337.349c10.925,7.253,38.756,12.971,46.009,2.046s-8.818-34.355-19.743-41.608
		c-10.925-7.253-25.661-4.277-32.914,6.648C138.328,315.359,141.304,330.096,152.229,337.349z"/>
	<path style="fill:#FFFFFF;" d="M321.456,269.533c-6.286,13.964-30.238,36.924-44.202,30.638
		c-13.964-6.286-12.652-39.44-6.366-53.404c6.286-13.964,22.703-20.187,36.667-13.901
		C321.519,239.153,327.743,255.569,321.456,269.533z"/>
	<path style="fill:#FFFFFF;" d="M359.771,337.349c-10.925,7.253-38.756,12.971-46.009,2.046
		c-7.253-10.925,8.818-34.355,19.743-41.608c10.925-7.253,25.661-4.277,32.914,6.648
		C373.672,315.359,370.696,330.096,359.771,337.349z"/>
</g>
</svg>