<?xml version="1.0" encoding="iso-8859-1"?>
<!-- Uploaded to: SVG Repo, www.svgrepo.com, Generator: SVG Repo Mixer Tools -->
<svg height="800px" width="800px" version="1.1" id="Layer_1" xmlns="http://www.w3.org/2000/svg" xmlns:xlink="http://www.w3.org/1999/xlink" 
	 viewBox="0 0 511.999 511.999" xml:space="preserve">
<g>
	<path style="fill:#F9EACD;" d="M234.666,153.714h42.665V96.582c-6.271,3.628-13.559,5.708-21.332,5.708s-15.059-2.079-21.332-5.711
		V153.714z"/>
	<path style="fill:#7BA9D6;" d="M255.998,102.289c7.773,0,15.061-2.079,21.332-5.708c12.753-7.379,21.332-21.168,21.332-36.958
		c0-23.567-19.101-42.665-42.665-42.665c-23.562,0-42.665,19.098-42.665,42.665c0,15.79,8.578,29.579,21.332,36.953
		C240.939,100.21,248.225,102.289,255.998,102.289z"/>
	<path style="fill:#FFE67B;" d="M277.331,153.714h-42.665l-53.336,0.004c-23.464,0-42.665,19.197-42.665,42.665
		s19.201,42.666,42.665,42.666h149.335c23.468,0,42.669-19.198,42.669-42.666s-19.201-42.665-42.669-42.665L277.331,153.714z"/>
	<path style="fill:#F99A98;" d="M330.665,239.048H181.33h-42.665c-23.468,0-42.665,19.201-42.665,42.669
		c0,23.468,19.197,42.665,42.665,42.665h234.668c23.468,0,42.665-19.197,42.665-42.665c0-23.468-19.197-42.669-42.665-42.669
		L330.665,239.048L330.665,239.048z"/>
	<path style="fill:#9FDEE2;" d="M373.334,324.381H138.665H96.001c-23.468,0-42.665,19.197-42.665,42.665
		c0,23.466,19.197,42.669,42.665,42.669h319.997c23.468,0,42.665-19.203,42.665-42.669c0-23.468-19.197-42.665-42.665-42.665
		H373.334z"/>
	<path style="fill:#FFA233;" d="M415.998,409.714H96.001H53.332c-23.466,0-42.665,19.197-42.665,42.665
		c0,23.468,19.199,42.665,42.665,42.665h405.335c23.464,0,42.665-19.197,42.665-42.665c0-23.468-19.201-42.665-42.665-42.665
		H415.998z"/>
</g>
<g>
	<path style="fill:#000003;" d="M458.667,399.047h-0.031c6.711-8.921,10.694-20.005,10.694-32.002
		c0-29.407-23.924-53.332-53.332-53.332h-0.027c6.711-8.919,10.694-20.001,10.694-31.997c0-29.411-23.924-53.336-53.332-53.336
		h-0.027c6.711-8.92,10.694-20.001,10.694-31.998c0-29.407-23.927-53.332-53.336-53.332h-42.667V102.26
		c12.945-9.741,21.332-25.227,21.332-42.64c0-29.407-23.924-53.332-53.332-53.332c-29.41,0-53.336,23.924-53.336,53.332
		c0,17.412,8.39,32.901,21.337,42.642v40.788H181.33c-29.407,0-53.332,23.924-53.332,53.332c0,11.997,3.983,23.079,10.694,31.998
		h-0.027c-29.407,0-53.332,23.926-53.332,53.336c0,11.996,3.983,23.077,10.694,31.997h-0.027
		c-29.407-0.001-53.332,23.923-53.332,53.331c0,11.996,3.983,23.081,10.696,32.002h-0.033C23.924,399.047,0,422.971,0,452.379
		c0,29.407,23.924,53.332,53.332,53.332h405.335c29.407,0,53.332-23.924,53.332-53.332C512,422.971,488.076,399.047,458.667,399.047
		z M255.998,27.623c17.645,0,31.997,14.354,31.997,31.997c0,12.056-6.702,22.573-16.576,28.028
		c-0.171,0.095-0.344,0.186-0.516,0.276c-0.343,0.182-0.689,0.365-1.042,0.534c-0.468,0.227-0.944,0.443-1.425,0.645
		c-0.258,0.11-0.523,0.207-0.785,0.31c-0.335,0.13-0.671,0.259-1.008,0.379c-0.238,0.083-0.475,0.163-0.713,0.242
		c-0.422,0.138-0.85,0.267-1.279,0.386c-0.162,0.046-0.323,0.096-0.487,0.14c-0.612,0.161-1.231,0.306-1.854,0.431
		c-0.085,0.018-0.173,0.03-0.26,0.047c-0.54,0.103-1.082,0.193-1.627,0.269c-0.177,0.025-0.352,0.046-0.529,0.067
		c-0.477,0.06-0.958,0.106-1.44,0.143c-0.177,0.013-0.352,0.029-0.529,0.039c-0.64,0.038-1.281,0.064-1.925,0.064
		c-0.644,0-1.285-0.026-1.925-0.064c-0.175-0.011-0.35-0.026-0.525-0.039c-0.485-0.037-0.966-0.084-1.448-0.143
		c-0.173-0.02-0.346-0.043-0.518-0.065c-0.553-0.077-1.104-0.167-1.652-0.273c-0.077-0.016-0.158-0.027-0.236-0.043
		c-0.627-0.126-1.25-0.272-1.869-0.434c-0.153-0.041-0.3-0.086-0.452-0.129c-0.444-0.124-0.883-0.257-1.321-0.4
		c-0.227-0.075-0.454-0.151-0.677-0.23c-0.361-0.126-0.719-0.263-1.073-0.403c-0.242-0.095-0.487-0.186-0.725-0.287
		c-0.494-0.207-0.979-0.429-1.462-0.661c-0.325-0.157-0.642-0.326-0.96-0.494c-0.206-0.108-0.413-0.215-0.614-0.329
		c-9.854-5.461-16.543-15.967-16.543-28.008C223.997,41.977,238.354,27.623,255.998,27.623z M255.998,112.956
		c3.652,0,7.22-0.371,10.665-1.073v31.162h-21.33v-31.162C248.782,112.586,252.348,112.956,255.998,112.956z M149.333,196.382
		c0-17.645,14.355-31.997,31.997-31.997h149.335c17.647,0,32.002,14.353,32.002,31.997c0,17.643-14.355,31.998-32.002,31.998H181.33
		C163.687,228.381,149.333,214.025,149.333,196.382z M106.668,281.716c0-17.647,14.355-32.002,31.997-32.002h42.665h149.335h42.669
		c17.645,0,31.997,14.354,31.997,32.002c0,17.643-14.353,31.997-31.997,31.997H138.665
		C121.023,313.713,106.668,299.358,106.668,281.716z M64.003,367.045c0-17.645,14.355-31.997,31.997-31.997h42.665h234.668h42.665
		c17.645,0,31.997,14.353,31.997,31.997c0,17.645-14.353,32.002-31.997,32.002H96.001C78.358,399.047,64.003,384.69,64.003,367.045z
		 M458.667,484.376H53.332c-17.643,0-31.997-14.355-31.997-31.997c0-17.645,14.355-31.997,31.997-31.997h42.669h319.997h42.669
		c17.645,0,31.997,14.353,31.997,31.997C490.666,470.021,476.313,484.376,458.667,484.376z"/>
	<path style="fill:#000003;" d="M157.715,441.712H78.387c-5.889,0-10.667,4.776-10.667,10.667c0,5.889,4.777,10.667,10.667,10.667
		h79.327c5.891,0,10.667-4.778,10.667-10.667C168.382,446.487,163.606,441.712,157.715,441.712z"/>
	<path style="fill:#000003;" d="M188.608,441.716h-0.25c-5.892,0-10.667,4.776-10.667,10.667c0,5.889,4.776,10.667,10.667,10.667
		h0.25c5.891,0,10.667-4.778,10.667-10.667C199.275,446.491,194.5,441.716,188.608,441.716z"/>
	<path style="fill:#000003;" d="M384.001,281.71c0-5.89-4.776-10.665-10.667-10.665l-55.113,0.004
		c-5.892,0-10.667,4.775-10.667,10.667c0,5.892,4.777,10.667,10.669,10.667l55.113-0.004
		C379.226,292.379,384.001,287.602,384.001,281.71z"/>
	<path style="fill:#000003;" d="M287.58,271.053h-0.256c-5.889,0-10.667,4.776-10.667,10.667c0,5.889,4.778,10.667,10.667,10.667
		h0.256c5.892,0,10.667-4.778,10.667-10.667C298.247,275.828,293.471,271.053,287.58,271.053z"/>
</g>
</svg>