<?xml version="1.0" encoding="iso-8859-1"?>
<!-- Uploaded to: SVG Repo, www.svgrepo.com, Generator: SVG Repo Mixer Tools -->
<svg version="1.1" id="Layer_1" xmlns="http://www.w3.org/2000/svg" xmlns:xlink="http://www.w3.org/1999/xlink" 
	 viewBox="0 0 512 512" xml:space="preserve">
<path style="fill:#39B54A;" d="M334.545,157.093v343.27H170.915l34.467-132.654h33.361c27.206,0,49.256-22.062,49.256-49.268
	c0-6.109-2.257-11.741-6.028-16.058c-3.77-4.317-9.053-7.319-15.104-8.134l-90.577-12.265V223.42c0,0-45.265,18.316-51.968,65.931
	c-3.98,28.218-20.573,59.531-39.959,84.386V157.093L334.545,157.093L334.545,157.093z"/>
<rect x="334.544" y="157.09" style="fill:#D1D5D8;" width="93.09" height="343.27"/>
<polygon style="fill:#39B54A;" points="334.545,157.093 384.581,64.003 134.401,64.003 84.365,157.093 225.579,157.093 "/>
<polygon style="fill:#D1D5D8;" points="427.635,157.093 334.545,157.093 384.581,64.003 "/>
<rect x="134.411" y="11.636" style="fill:#EFEFEF;" width="250.18" height="52.363"/>
<path style="fill:#FBA026;" d="M288,318.442c0,27.206-22.051,49.268-49.256,49.268h-33.361l-34.467,132.654H84.365V373.738
	c19.386-24.855,35.979-56.168,39.959-84.386c6.702-47.616,51.968-65.931,51.968-65.931v58.565l90.577,12.265
	c6.051,0.815,11.334,3.817,15.104,8.134C285.742,306.701,288,312.333,288,318.442z"/>
<g>
	<path style="fill:#231F20;" d="M438.185,152.206l0.012,0.002l-41.974-90.755V11.636C396.222,5.21,391.012,0,384.586,0h-250.18
		c-6.427,0-11.636,5.21-11.636,11.636v49.429l-48.613,90.443c-0.909,1.658-1.428,3.561-1.428,5.585v343.27
		c0,6.427,5.21,11.636,11.636,11.636h343.27c6.427,0,11.636-5.21,11.636-11.636v-343.27
		C439.271,155.346,438.876,153.693,438.185,152.206z M383.8,90.035l25.634,55.422h-55.422L383.8,90.035z M146.043,23.273H372.95
		v29.091H146.043L146.043,23.273L146.043,23.273z M174.731,293.517l90.586,12.266c3.051,0.411,5.853,1.921,7.892,4.255
		c2.035,2.33,3.156,5.314,3.156,8.404c0,20.751-16.876,37.632-37.62,37.632h-33.361c-5.299,0-9.929,3.58-11.263,8.71l-10.385,39.972
		l-74.998-45.558c14.527-23.226,24.145-47.194,27.11-68.224c3.277-23.278,17.302-38.433,28.809-47.183v38.195
		C164.655,287.808,168.961,292.735,174.731,293.517z M96.001,378.692l81.623,49.582l-15.708,60.453l0,0H96.001V378.692z
		 M214.382,379.346h24.362c33.576,0,60.893-27.321,60.893-60.904c0-8.72-3.16-17.141-8.899-23.712
		c-5.748-6.583-13.674-10.849-22.307-12.011l-80.502-10.901v-48.399c0-3.869-1.923-7.486-5.132-9.649
		c-3.208-2.162-7.282-2.589-10.869-1.138c-2.103,0.851-51.574,21.45-59.125,75.094c-1.998,14.167-7.936,30.557-16.8,47.043V168.73
		h129.577c6.427,0,11.636-5.21,11.636-11.636s-5.21-11.636-11.636-11.636H103.83l37.527-69.818h223.759l-40.82,75.945
		c-0.958,1.782-1.402,3.7-1.387,5.589v331.554H185.961L214.382,379.346z M415.999,488.727h-69.818V168.73h69.818V488.727z"/>
	<path style="fill:#231F20;" d="M278.524,145.454h-1.164c-6.427,0-11.636,5.21-11.636,11.636s5.21,11.636,11.636,11.636h1.164
		c6.427,0,11.636-5.21,11.636-11.636S284.951,145.454,278.524,145.454z"/>
</g>
</svg>