<svg xmlns="http://www.w3.org/2000/svg" width="432" height="432" viewBox="0 0 432 432" version="1.1"><path d="M 168.520 54.287 C 166.289 55.551, 163.551 58.289, 162.287 60.520 C 160.033 64.499, 160.033 64.509, 160.016 113.750 L 160 163 113.250 163.006 C 84.177 163.009, 65.094 163.402, 62.781 164.044 C 58.014 165.368, 53.103 169.509, 51.364 173.671 C 49.330 178.539, 49.372 258.897, 51.411 262.800 C 53.305 266.425, 57.866 270.633, 61.315 271.936 C 63.161 272.634, 80.628 273, 112.065 273 L 160 273 160 278.500 C 160 282.722, 159.652 284, 158.500 284 C 156.167 284, 156.299 304.517, 158.637 305.414 C 163.078 307.119, 157.282 334.721, 145.804 366.523 L 141.481 378.500 129.991 379 C 123.330 379.290, 118.500 379.920, 118.500 380.500 C 118.500 382.106, 211.473 383.329, 259.941 382.361 C 287.105 381.818, 303.102 381.131, 303.256 380.500 C 303.411 379.867, 296.445 379.400, 284.250 379.228 C 273.663 379.079, 265 378.767, 265 378.536 C 265 378.304, 266.012 376.401, 267.250 374.307 C 269.476 370.540, 269.503 370.049, 269.790 327.348 L 270.080 284.197 272.644 283.553 C 276.904 282.484, 279.872 279.996, 281.171 276.405 L 282.402 273 325.363 273 L 368.324 273 372.664 270.457 C 375.343 268.887, 377.768 266.415, 379.002 263.997 C 380.904 260.267, 381 258.095, 381 218.605 C 381 191.655, 380.626 176.144, 379.933 174.315 C 378.417 170.312, 375.128 167.026, 370.500 164.890 C 366.788 163.177, 363.021 163.042, 318.250 163.022 L 270 163 270 114.968 C 270 63.263, 269.957 62.797, 264.702 57.169 C 259.845 51.967, 260.155 51.999, 214.800 52.016 C 172.770 52.033, 172.475 52.047, 168.520 54.287 M 205.721 208.250 C 212.256 215.356, 213.722 222.369, 209.545 226.545 C 204.876 231.215, 198.307 229.608, 188.101 221.301 C 183.460 217.523, 182.267 217, 179.601 217.571 C 177.895 217.936, 176.197 218.413, 175.826 218.629 C 173.630 219.915, 170.060 237.572, 170.020 247.350 C 170.003 251.504, 170.466 252.665, 173.250 255.440 C 178.866 261.040, 195.635 265.886, 209.668 265.965 C 217.322 266.008, 218.693 265.494, 220.563 261.879 C 221.589 259.894, 222.813 259, 224.505 259 C 227.871 259, 231 252.660, 231.847 244.125 L 232.500 237.552 236.674 236.841 C 242.583 235.835, 246.777 233.413, 249.040 229.701 C 252.149 224.604, 251.650 223.710, 244.250 221.114 C 240.537 219.811, 233.301 216.503, 228.170 213.761 C 219.038 208.883, 210.920 206.036, 206.076 206.012 L 203.651 206 205.721 208.250 M 225 219.729 C 222.753 220.584, 222.032 222.119, 222.015 226.083 C 221.993 231.280, 223.068 231.564, 225.150 226.913 C 226.386 224.154, 227.950 222.468, 229.988 221.698 C 231.645 221.073, 233 220.210, 233 219.781 C 233 218.897, 227.283 218.860, 225 219.729 M 255.037 228.388 C 253.527 232.962, 247.087 238.489, 241.679 239.851 C 237.516 240.899, 237.464 240.968, 236.326 246.957 C 235.693 250.283, 234.237 254.946, 233.088 257.318 C 231.940 259.690, 231 261.912, 231 262.255 C 231 262.599, 232.688 263.019, 234.750 263.190 C 237.876 263.448, 238.735 264.033, 239.910 266.701 C 240.740 268.588, 242.178 270.025, 243.410 270.201 C 244.954 270.422, 245.630 271.413, 246 274 C 246.470 277.287, 246.713 277.488, 250 277.303 C 251.925 277.195, 255.132 276.815, 257.127 276.458 C 260.199 275.909, 261.009 276.169, 262.423 278.155 C 263.823 280.121, 264.236 280.258, 264.978 279 C 265.465 278.175, 266.501 276.643, 267.280 275.597 C 268.627 273.787, 268.752 273.849, 269.797 276.847 C 270.401 278.581, 271.320 280, 271.837 280 C 274.213 280, 277.188 276.031, 278.468 271.151 C 279.463 267.357, 281.058 264.595, 283.953 261.651 C 288.636 256.887, 293.989 249.146, 293.996 247.126 C 293.998 246.370, 291.968 243.963, 289.484 241.777 C 287.001 239.591, 283.856 235.904, 282.497 233.585 C 280.036 229.386, 279.983 229.359, 270.762 227.659 C 265.668 226.720, 260.312 225.694, 258.859 225.380 C 256.525 224.875, 256.081 225.225, 255.037 228.388 M 171 265.978 L 171 272.123 175.321 271.475 C 180.702 270.668, 187.517 272.426, 190.474 275.383 C 191.709 276.618, 195.368 278.924, 198.605 280.508 C 203.968 283.131, 205.295 283.363, 213.496 283.106 C 218.448 282.950, 222.544 282.750, 222.597 282.662 C 222.651 282.573, 222.238 279.575, 221.679 276 L 220.663 269.500 209.082 269.425 C 194.087 269.329, 185.337 267.170, 171.750 260.217 C 171.338 260.006, 171 262.598, 171 265.978 M 187.383 283.445 C 187.024 284.380, 187.014 287.863, 187.361 291.184 C 187.981 297.109, 187.917 297.318, 183.996 302.242 C 181.798 305.003, 180 307.855, 180 308.580 C 180 309.305, 178.425 311.100, 176.500 312.568 C 172.801 315.389, 172.053 317, 174.441 317 C 176.944 317, 177.203 318.927, 175.065 321.645 C 173.929 323.088, 173.011 324.772, 173.024 325.385 C 173.037 325.998, 175.174 327.518, 177.774 328.762 C 180.373 330.006, 184.750 332.622, 187.500 334.575 C 190.250 336.528, 195.071 339.446, 198.212 341.058 C 203.994 344.026, 206 346.281, 206 349.812 C 206 352.569, 208.017 353.903, 213.275 354.624 C 220.024 355.549, 225 354.388, 225 351.889 C 225 348.099, 226.850 346.200, 231.237 345.490 C 233.582 345.110, 238.731 343.521, 242.679 341.958 C 249.592 339.222, 253.971 338.071, 258.750 337.733 C 261.435 337.544, 261.471 337.217, 259.375 331.979 C 257.532 327.372, 257.916 326.350, 260.892 327.942 C 262.672 328.895, 262.862 328.803, 262.276 327.273 C 261.902 326.298, 260.625 324.066, 259.436 322.314 C 258.248 320.561, 256.985 317.305, 256.628 315.078 C 256.272 312.850, 255.233 309.460, 254.320 307.545 C 252.906 304.580, 252.845 303.501, 253.906 300.281 C 254.592 298.202, 255.006 294.700, 254.826 292.500 C 254.508 288.601, 254.411 288.506, 251 288.751 C 249.075 288.889, 245.594 289.711, 243.264 290.578 C 239.228 292.080, 238.757 292.047, 233.264 289.870 C 228.429 287.954, 225.461 287.563, 214.842 287.446 C 203.655 287.322, 201.740 287.044, 198.366 285.053 C 193.094 281.943, 188.232 281.231, 187.383 283.445 M 191.034 286.459 C 189.682 288.088, 190.541 294, 192.129 294 C 194.221 294, 199 290.870, 199 289.500 C 199 288.703, 197.672 287.365, 196.050 286.526 C 192.446 284.662, 192.524 284.663, 191.034 286.459 M 245.176 293.059 C 242.234 294.238, 242.646 296.651, 246.248 299.338 C 248.964 301.364, 249.013 301.365, 250.466 299.444 C 251.275 298.375, 251.951 296.262, 251.968 294.750 C 251.994 292.537, 251.561 292.012, 249.750 292.063 C 248.512 292.098, 246.454 292.546, 245.176 293.059 M 203.843 300.391 C 200.942 301.837, 199.786 305.757, 202.649 304.441 C 203.667 303.973, 206.179 303.636, 208.231 303.694 C 211.508 303.785, 211.847 303.582, 211.013 302.024 C 209.748 299.660, 206.701 298.966, 203.843 300.391 M 226.750 303.080 C 223.933 304.721, 224.655 306.319, 227.918 305.666 C 230.002 305.250, 231.588 305.675, 233.470 307.155 C 236.774 309.754, 237.191 309.355, 235.464 305.250 C 234.378 302.668, 233.521 302.006, 231.298 302.030 C 229.759 302.047, 227.713 302.519, 226.750 303.080 M 213.250 308.662 C 211.657 309.305, 211.654 311.473, 213.243 314.017 C 216.954 319.959, 203.070 324.989, 196.727 320 C 193.430 317.407, 191.781 317.461, 192.180 320.150 C 193.053 326.016, 203.778 328.093, 212.179 324.021 C 216.463 321.944, 216.514 321.943, 218.097 323.885 C 224.536 331.782, 241 332.347, 241 324.671 C 241 322.492, 239.768 322.562, 235.815 324.966 C 232.022 327.273, 228.983 326.841, 224.258 323.324 C 219.973 320.134, 219.069 316.574, 221.952 314.240 C 225.635 311.257, 222.650 307.892, 216.500 308.093 C 215.400 308.129, 213.938 308.385, 213.250 308.662 M 170 331.705 C 170 334.354, 175.195 340.273, 182.955 346.464 C 193.065 354.531, 194.312 359.888, 187.633 366.567 C 184.186 370.014, 175.350 373.172, 159.500 376.620 C 155.100 377.578, 152.384 378.556, 153.463 378.795 C 154.543 379.034, 164.566 378.902, 175.736 378.504 L 196.046 377.778 198.447 373.639 C 200.417 370.243, 200.745 368.620, 200.277 364.601 C 199.856 360.983, 200.166 358.847, 201.465 356.436 C 203.994 351.740, 202.551 348.143, 196.927 345.123 C 194.492 343.816, 188.450 340.147, 183.500 336.970 C 172.866 330.146, 170 329.028, 170 331.705 M 203.744 373.123 C 202.785 374.795, 202 376.576, 202 377.081 C 202 377.597, 208.352 378, 216.500 378 C 224.475 378, 231 377.732, 231 377.404 C 231 377.077, 230.260 375.555, 229.355 374.024 C 227.747 371.302, 227.517 371.242, 219.105 371.370 C 214.372 371.441, 209.372 371.181, 207.994 370.792 C 205.895 370.199, 205.205 370.578, 203.744 373.123" stroke="none" fill="#0c5a72" fill-rule="evenodd"/><path d="M -0 216.002 L -0 432.005 216.250 431.752 L 432.500 431.500 432.752 215.750 L 433.005 0 216.502 0 L 0 0 -0 216.002 M 0.491 216.500 C 0.491 335.300, 0.608 383.752, 0.750 324.170 C 0.892 264.589, 0.892 167.389, 0.750 108.170 C 0.607 48.952, 0.491 97.700, 0.491 216.500 M 168.520 54.287 C 166.289 55.551, 163.551 58.289, 162.287 60.520 C 160.033 64.499, 160.033 64.509, 160.016 113.750 L 160 163 113.250 163.006 C 84.177 163.009, 65.094 163.402, 62.781 164.044 C 58.014 165.368, 53.103 169.509, 51.364 173.671 C 49.330 178.539, 49.372 258.897, 51.411 262.800 C 53.305 266.425, 57.866 270.633, 61.315 271.936 C 63.161 272.634, 80.628 273, 112.065 273 L 160 273 160 278.500 C 160 282.722, 159.652 284, 158.500 284 C 156.167 284, 156.299 304.517, 158.637 305.414 C 163.078 307.119, 157.282 334.721, 145.804 366.523 L 141.481 378.500 129.991 379 C 123.330 379.290, 118.500 379.920, 118.500 380.500 C 118.500 382.106, 211.473 383.329, 259.941 382.361 C 287.105 381.818, 303.102 381.131, 303.256 380.500 C 303.411 379.867, 296.445 379.400, 284.250 379.228 C 273.663 379.079, 265 378.767, 265 378.536 C 265 378.304, 266.012 376.401, 267.250 374.307 C 269.476 370.540, 269.503 370.049, 269.790 327.348 L 270.080 284.197 272.644 283.553 C 276.904 282.484, 279.872 279.996, 281.171 276.405 L 282.402 273 325.363 273 L 368.324 273 372.664 270.457 C 375.343 268.887, 377.768 266.415, 379.002 263.997 C 380.904 260.267, 381 258.095, 381 218.605 C 381 191.655, 380.626 176.144, 379.933 174.315 C 378.417 170.312, 375.128 167.026, 370.500 164.890 C 366.788 163.177, 363.021 163.042, 318.250 163.022 L 270 163 270 114.968 C 270 63.263, 269.957 62.797, 264.702 57.169 C 259.845 51.967, 260.155 51.999, 214.800 52.016 C 172.770 52.033, 172.475 52.047, 168.520 54.287 M 205.721 208.250 C 212.256 215.356, 213.722 222.369, 209.545 226.545 C 204.876 231.215, 198.307 229.608, 188.101 221.301 C 183.460 217.523, 182.267 217, 179.601 217.571 C 177.895 217.936, 176.197 218.413, 175.826 218.629 C 173.630 219.915, 170.060 237.572, 170.020 247.350 C 170.003 251.504, 170.466 252.665, 173.250 255.440 C 178.866 261.040, 195.635 265.886, 209.668 265.965 C 217.322 266.008, 218.693 265.494, 220.563 261.879 C 221.589 259.894, 222.813 259, 224.505 259 C 227.871 259, 231 252.660, 231.847 244.125 L 232.500 237.552 236.674 236.841 C 242.583 235.835, 246.777 233.413, 249.040 229.701 C 252.149 224.604, 251.650 223.710, 244.250 221.114 C 240.537 219.811, 233.301 216.503, 228.170 213.761 C 219.038 208.883, 210.920 206.036, 206.076 206.012 L 203.651 206 205.721 208.250 M 225 219.729 C 222.753 220.584, 222.032 222.119, 222.015 226.083 C 221.993 231.280, 223.068 231.564, 225.150 226.913 C 226.386 224.154, 227.950 222.468, 229.988 221.698 C 231.645 221.073, 233 220.210, 233 219.781 C 233 218.897, 227.283 218.860, 225 219.729 M 255.037 228.388 C 253.527 232.962, 247.087 238.489, 241.679 239.851 C 237.516 240.899, 237.464 240.968, 236.326 246.957 C 235.693 250.283, 234.237 254.946, 233.088 257.318 C 231.940 259.690, 231 261.912, 231 262.255 C 231 262.599, 232.688 263.019, 234.750 263.190 C 237.876 263.448, 238.735 264.033, 239.910 266.701 C 240.740 268.588, 242.178 270.025, 243.410 270.201 C 244.954 270.422, 245.630 271.413, 246 274 C 246.470 277.287, 246.713 277.488, 250 277.303 C 251.925 277.195, 255.132 276.815, 257.127 276.458 C 260.199 275.909, 261.009 276.169, 262.423 278.155 C 263.823 280.121, 264.236 280.258, 264.978 279 C 265.465 278.175, 266.501 276.643, 267.280 275.597 C 268.627 273.787, 268.752 273.849, 269.797 276.847 C 270.401 278.581, 271.320 280, 271.837 280 C 274.213 280, 277.188 276.031, 278.468 271.151 C 279.463 267.357, 281.058 264.595, 283.953 261.651 C 288.636 256.887, 293.989 249.146, 293.996 247.126 C 293.998 246.370, 291.968 243.963, 289.484 241.777 C 287.001 239.591, 283.856 235.904, 282.497 233.585 C 280.036 229.386, 279.983 229.359, 270.762 227.659 C 265.668 226.720, 260.312 225.694, 258.859 225.380 C 256.525 224.875, 256.081 225.225, 255.037 228.388 M 171 265.978 L 171 272.123 175.321 271.475 C 180.702 270.668, 187.517 272.426, 190.474 275.383 C 191.709 276.618, 195.368 278.924, 198.605 280.508 C 203.968 283.131, 205.295 283.363, 213.496 283.106 C 218.448 282.950, 222.544 282.750, 222.597 282.662 C 222.651 282.573, 222.238 279.575, 221.679 276 L 220.663 269.500 209.082 269.425 C 194.087 269.329, 185.337 267.170, 171.750 260.217 C 171.338 260.006, 171 262.598, 171 265.978 M 187.383 283.445 C 187.024 284.380, 187.014 287.863, 187.361 291.184 C 187.981 297.109, 187.917 297.318, 183.996 302.242 C 181.798 305.003, 180 307.855, 180 308.580 C 180 309.305, 178.425 311.100, 176.500 312.568 C 172.801 315.389, 172.053 317, 174.441 317 C 176.944 317, 177.203 318.927, 175.065 321.645 C 173.929 323.088, 173.011 324.772, 173.024 325.385 C 173.037 325.998, 175.174 327.518, 177.774 328.762 C 180.373 330.006, 184.750 332.622, 187.500 334.575 C 190.250 336.528, 195.071 339.446, 198.212 341.058 C 203.994 344.026, 206 346.281, 206 349.812 C 206 352.569, 208.017 353.903, 213.275 354.624 C 220.024 355.549, 225 354.388, 225 351.889 C 225 348.099, 226.850 346.200, 231.237 345.490 C 233.582 345.110, 238.731 343.521, 242.679 341.958 C 249.592 339.222, 253.971 338.071, 258.750 337.733 C 261.435 337.544, 261.471 337.217, 259.375 331.979 C 257.532 327.372, 257.916 326.350, 260.892 327.942 C 262.672 328.895, 262.862 328.803, 262.276 327.273 C 261.902 326.298, 260.625 324.066, 259.436 322.314 C 258.248 320.561, 256.985 317.305, 256.628 315.078 C 256.272 312.850, 255.233 309.460, 254.320 307.545 C 252.906 304.580, 252.845 303.501, 253.906 300.281 C 254.592 298.202, 255.006 294.700, 254.826 292.500 C 254.508 288.601, 254.411 288.506, 251 288.751 C 249.075 288.889, 245.594 289.711, 243.264 290.578 C 239.228 292.080, 238.757 292.047, 233.264 289.870 C 228.429 287.954, 225.461 287.563, 214.842 287.446 C 203.655 287.322, 201.740 287.044, 198.366 285.053 C 193.094 281.943, 188.232 281.231, 187.383 283.445 M 191.034 286.459 C 189.682 288.088, 190.541 294, 192.129 294 C 194.221 294, 199 290.870, 199 289.500 C 199 288.703, 197.672 287.365, 196.050 286.526 C 192.446 284.662, 192.524 284.663, 191.034 286.459 M 245.176 293.059 C 242.234 294.238, 242.646 296.651, 246.248 299.338 C 248.964 301.364, 249.013 301.365, 250.466 299.444 C 251.275 298.375, 251.951 296.262, 251.968 294.750 C 251.994 292.537, 251.561 292.012, 249.750 292.063 C 248.512 292.098, 246.454 292.546, 245.176 293.059 M 203.843 300.391 C 200.942 301.837, 199.786 305.757, 202.649 304.441 C 203.667 303.973, 206.179 303.636, 208.231 303.694 C 211.508 303.785, 211.847 303.582, 211.013 302.024 C 209.748 299.660, 206.701 298.966, 203.843 300.391 M 226.750 303.080 C 223.933 304.721, 224.655 306.319, 227.918 305.666 C 230.002 305.250, 231.588 305.675, 233.470 307.155 C 236.774 309.754, 237.191 309.355, 235.464 305.250 C 234.378 302.668, 233.521 302.006, 231.298 302.030 C 229.759 302.047, 227.713 302.519, 226.750 303.080 M 213.250 308.662 C 211.657 309.305, 211.654 311.473, 213.243 314.017 C 216.954 319.959, 203.070 324.989, 196.727 320 C 193.430 317.407, 191.781 317.461, 192.180 320.150 C 193.053 326.016, 203.778 328.093, 212.179 324.021 C 216.463 321.944, 216.514 321.943, 218.097 323.885 C 224.536 331.782, 241 332.347, 241 324.671 C 241 322.492, 239.768 322.562, 235.815 324.966 C 232.022 327.273, 228.983 326.841, 224.258 323.324 C 219.973 320.134, 219.069 316.574, 221.952 314.240 C 225.635 311.257, 222.650 307.892, 216.500 308.093 C 215.400 308.129, 213.938 308.385, 213.250 308.662 M 170 331.705 C 170 334.354, 175.195 340.273, 182.955 346.464 C 193.065 354.531, 194.312 359.888, 187.633 366.567 C 184.186 370.014, 175.350 373.172, 159.500 376.620 C 155.100 377.578, 152.384 378.556, 153.463 378.795 C 154.543 379.034, 164.566 378.902, 175.736 378.504 L 196.046 377.778 198.447 373.639 C 200.417 370.243, 200.745 368.620, 200.277 364.601 C 199.856 360.983, 200.166 358.847, 201.465 356.436 C 203.994 351.740, 202.551 348.143, 196.927 345.123 C 194.492 343.816, 188.450 340.147, 183.500 336.970 C 172.866 330.146, 170 329.028, 170 331.705 M 203.744 373.123 C 202.785 374.795, 202 376.576, 202 377.081 C 202 377.597, 208.352 378, 216.500 378 C 224.475 378, 231 377.732, 231 377.404 C 231 377.077, 230.260 375.555, 229.355 374.024 C 227.747 371.302, 227.517 371.242, 219.105 371.370 C 214.372 371.441, 209.372 371.181, 207.994 370.792 C 205.895 370.199, 205.205 370.578, 203.744 373.123" stroke="none" fill="#f7f7f6" fill-rule="evenodd"/></svg>